<svg width="40" height="40" viewBox="0 0 40 40" fill="none" xmlns="http://www.w3.org/2000/svg">
<path d="M28.8225 15.9233H27.824V23.3196H28.8225V15.9233Z" fill="black"/>
<path d="M29.8276 16.7792H21.1575V17.6312H29.8276V16.7792Z" fill="black"/>
<path d="M31.2424 17.9855H22.5734V18.8403H31.2424V17.9855Z" fill="black"/>
<path d="M32.7818 12.5068C32.8222 12.1497 32.8441 11.788 32.8441 11.4198C32.843 5.11606 26.8517 0 19.4598 0C12.1083 0 6.14536 5.05826 6.07762 11.3182C2.47781 12.8349 0 15.9952 0 19.6532C0 23.5182 2.76405 26.8304 6.69926 28.2325V40H33.4646V29.0426C37.2928 27.7682 40 24.5931 40 20.8782C39.9989 16.9442 36.9628 13.6152 32.7818 12.5068ZM30.3881 21.1774C27.8688 23.328 24.6557 24.1782 22.6204 23.3719L22.2271 23.7047L23.4343 24.7385L23.8484 24.3852L30.3466 29.931L27.3979 32.4452L20.903 26.9013L21.3148 26.548L20.1087 25.5179L19.4783 26.0548L20.1338 26.6104L13.1035 32.6084L10.2729 30.1939L17.3021 24.1978L17.9565 24.7553L18.5847 24.2183L15.6567 21.7218C14.0409 23.0987 12.8271 22.9291 12.8271 22.9291L6.6938 17.6937L13.0609 12.2625L19.191 17.4932C19.191 17.4932 19.5013 18.4367 17.7762 19.9077L20.7063 22.4098L21.0985 22.0733C20.1568 20.3365 21.151 17.5939 23.6681 15.4461C26.5982 12.944 30.4788 12.2029 32.3339 13.7876C34.1868 15.3668 33.3193 18.679 30.3881 21.1774Z" fill="black"/>
</svg>
